<svg xmlns="http://www.w3.org/2000/svg" width="150" height="182.042" viewBox="0 0 150 182.042">
  <g id="Marke" transform="translate(-34.3 -34.286)">
    <g id="Gruppe_1" data-name="Gruppe 1" transform="translate(34.3 34.286)">
      <rect id="Rechteck_1" data-name="Rechteck 1" width="1.433" height="12.09" transform="translate(0 169.745)" fill="#005687"/>
      <path id="Pfad_1" data-name="Pfad 1" d="M44.582,125.941l-.535,1.38h-.035l-.57-1.347-3.782-6.182H38.588v12.09h1.347v-8.135l-.24-1.8h.085l.622,1.64,3.333,5.475h.432l3.143-5.457.657-1.658h.087l-.174,1.813v8.117h1.435v-12.09H48.192Z" transform="translate(-30.075 49.954)" fill="#005687"/>
      <path id="Pfad_2" data-name="Pfad 2" d="M53.385,125.941l-.535,1.38h-.035l-.57-1.347-3.782-6.182h-1.07v12.09H48.74v-8.135l-.242-1.8h.087l.62,1.64,3.335,5.475h.432l3.143-5.457.655-1.658h.087l-.173,1.813v8.117h1.433v-12.09H56.995Z" transform="translate(-21.401 49.954)" fill="#005687"/>
      <path id="Pfad_3" data-name="Pfad 3" d="M64.623,121.406a4.137,4.137,0,0,0-1.545-1.27,5.035,5.035,0,0,0-2.21-.45,4.377,4.377,0,0,0-3.645,1.615,7.326,7.326,0,0,0-1.278,4.637,10.363,10.363,0,0,0,.293,2.565,5.539,5.539,0,0,0,.907,1.97,4.177,4.177,0,0,0,1.537,1.27,4.955,4.955,0,0,0,2.185.448,4.419,4.419,0,0,0,3.67-1.615,7.294,7.294,0,0,0,1.285-4.637,10.362,10.362,0,0,0-.293-2.565A5.53,5.53,0,0,0,64.623,121.406Zm-1.235,8.29a2.978,2.978,0,0,1-2.52,1.217,2.832,2.832,0,0,1-1.53-.405,3.285,3.285,0,0,1-1.062-1.09,5.166,5.166,0,0,1-.613-1.58,8.813,8.813,0,0,1-.2-1.9,6.306,6.306,0,0,1,.905-3.755,2.942,2.942,0,0,1,2.5-1.219,2.848,2.848,0,0,1,1.545.407,3.3,3.3,0,0,1,1.07,1.088,5.006,5.006,0,0,1,.622,1.59,8.84,8.84,0,0,1,.2,1.89A6.255,6.255,0,0,1,63.388,129.7Z" transform="translate(-12.975 49.851)" fill="#005687"/>
      <path id="Pfad_4" data-name="Pfad 4" d="M70.91,126.406a2.7,2.7,0,0,0-.838-.57,4.181,4.181,0,0,0-.993-.295v-.07a3.275,3.275,0,0,0,1.018-.448,2.734,2.734,0,0,0,.708-.682,2.913,2.913,0,0,0,.415-.837,2.966,2.966,0,0,0,.14-.882,2.641,2.641,0,0,0-.372-1.468,2.683,2.683,0,0,0-.942-.89,3.816,3.816,0,0,0-1.268-.43,8.586,8.586,0,0,0-1.375-.112q-1,0-1.848.068t-1.485.174v11.9a5.13,5.13,0,0,0,.76.13c.287.027.576.05.863.068s.564.027.83.027h.69a6.724,6.724,0,0,0,1.66-.207,4.514,4.514,0,0,0,1.442-.64,3.309,3.309,0,0,0,1.018-1.115,3.2,3.2,0,0,0,.39-1.615,3.072,3.072,0,0,0-.225-1.225A2.778,2.778,0,0,0,70.91,126.406ZM65.5,121.069a5.017,5.017,0,0,1,.717-.078c.316-.017.665-.027,1.045-.027a4.842,4.842,0,0,1,.95.1,2.552,2.552,0,0,1,.83.32,1.7,1.7,0,0,1,.578.6,1.861,1.861,0,0,1,.217.942,1.813,1.813,0,0,1-.165.768,2.013,2.013,0,0,1-.45.622,3.192,3.192,0,0,1-.648.467,4.675,4.675,0,0,1-.777.335c-.184.023-.415.041-.69.052s-.512.017-.708.017h-.9Zm4.465,8.532a2.143,2.143,0,0,1-.63.7,2.648,2.648,0,0,1-.915.415,4.349,4.349,0,0,1-1.07.13c-.14,0-.3,0-.485-.008s-.363-.016-.535-.027l-.483-.035a1.714,1.714,0,0,1-.347-.05v-4.335h1.5a7.779,7.779,0,0,1,1.14.085,3.254,3.254,0,0,1,1.029.328,2,2,0,0,1,.743.675,2.035,2.035,0,0,1,.285,1.14A1.964,1.964,0,0,1,69.968,129.6Z" transform="translate(-4.97 49.885)" fill="#005687"/>
      <rect id="Rechteck_2" data-name="Rechteck 2" width="1.433" height="12.09" transform="translate(73.332 169.745)" fill="#005687"/>
      <path id="Pfad_5" data-name="Pfad 5" d="M76.961,119.791H75.528v12.09h7.15V130.6H76.961Z" transform="translate(6.319 49.954)" fill="#005687"/>
      <rect id="Rechteck_3" data-name="Rechteck 3" width="1.433" height="12.09" transform="translate(94.921 169.745)" fill="#005687"/>
      <path id="Pfad_6" data-name="Pfad 6" d="M87.837,126.3h4.715v-1.28H87.837v-3.955h5.147v-1.278H86.4v12.09h6.667V130.6H87.837Z" transform="translate(17.032 49.954)" fill="#005687"/>
      <path id="Pfad_7" data-name="Pfad 7" d="M100.33,127.762l.19,1.658h-.087l-.9-1.658L93.748,119.7h-.76v12.28h1.347v-7.91l-.173-1.745h.07l.932,1.745,5.752,8.1h.76v-12.28H100.33Z" transform="translate(23.52 49.859)" fill="#005687"/>
      <path id="Pfad_8" data-name="Pfad 8" d="M72.244,95.193H42.467V70.972H69.295v-7.2H42.467V41.5H71.751V34.3H34.311v68.092H72.244Z" transform="translate(-34.288 -34.273)" fill="#005687"/>
      <path id="Pfad_9" data-name="Pfad 9" d="M101.626,95.193H69.1V34.3H60.943v68.092h40.683Z" transform="translate(-8.05 -34.273)" fill="#005687"/>
      <path id="Pfad_10" data-name="Pfad 10" d="M87.181,145.392h8.156V77.3H88.949L68.411,111.928l-3.046,7.784h-.2l-3.243-7.588L40.4,77.3H34.311v68.092h7.664V99.575L40.6,89.459h.49L44.629,98.7,63.6,129.535h2.456L83.938,98.8l3.734-9.339h.492l-.983,10.213Z" transform="translate(-34.288 8.091)" fill="#005687"/>
      <path id="Pfad_11" data-name="Pfad 11" d="M95.25,76.761,69.21,145.923h8.156l6.844-18.871h25.228l7.039,18.871h8.648L98.986,76.761Zm11.743,43.287H86.85l7.528-20.525,2.445-10.506h.1l2.445,10.312Z" transform="translate(0.094 7.56)" fill="#005687"/>
      <path id="Pfad_12" data-name="Pfad 12" d="M81.671,34.286H79.552l58.043,153.488,2.123.01Z" transform="translate(10.283 -34.286)" fill="#005687"/>
    </g>
  </g>
</svg>
